<svg xmlns="http://www.w3.org/2000/svg" viewBox="0 0 48 48"><title>11-idea</title><g id="_11-idea" data-name="11-idea"><path d="M34.97,30.757a1,1,0,0,0-.523-.652l-4-2,0,.011a1.153,1.153,0,0,0-.126-.065A1,1,0,0,0,29.2,28.4L24,35.333,18.8,28.4a1,1,0,0,0-1.116-.349,1.153,1.153,0,0,0-.126.065l0-.011-4,2a1,1,0,0,0-.523.652l-4,16A1,1,0,0,0,10,48H38a1,1,0,0,0,.97-1.243ZM29,32v2.279l-2.279.76ZM19,32l2.279,3.039L19,34.279ZM17,46V41H15v5H11.281l3.577-14.311L17,30.618V35a1,1,0,0,0,.684.949l5.079,1.693L20.256,46Zm5.344,0L24,40.48,25.656,46ZM33,46V41H31v5H27.744l-2.507-8.358,5.079-1.693A1,1,0,0,0,31,35V30.618l2.142,1.071L36.719,46Z"/><path d="M46,35.184V31a1,1,0,0,0-.293-.707L38.414,23l3.567-3.567A3.947,3.947,0,0,0,44,20a4,4,0,1,0-4-4,3.947,3.947,0,0,0,.567,2.019L36.586,22H29V20.786a11,11,0,1,0-10,0V22H9V16a1,1,0,0,0-.293-.707L7.433,14.019A3.947,3.947,0,0,0,8,12a4,4,0,1,0-4,4,3.947,3.947,0,0,0,2.019-.567L7,16.414v6.172L2.293,27.293A1,1,0,0,0,2,28v3.184a3,3,0,1,0,2,0v-2.77L8.414,24H19v2a1,1,0,0,0,1,1h.142A4,4,0,0,0,23,29.858V31h2V29.858A4,4,0,0,0,27.858,27H28a1,1,0,0,0,1-1V24h7.586L44,31.414v3.77a3,3,0,1,0,2,0ZM44,14a2,2,0,1,1-2,2A2,2,0,0,1,44,14ZM4,14a2,2,0,1,1,2-2A2,2,0,0,1,4,14ZM3,35a1,1,0,1,1,1-1A1,1,0,0,1,3,35Zm21-7a1.993,1.993,0,0,1-1.722-1h3.444A1.993,1.993,0,0,1,24,28Zm3-3H21V21.574a10.776,10.776,0,0,0,6,0Zm-2-5.059V13h1a1,1,0,0,0,1-1V10H25v1H23V10H21v2a1,1,0,0,0,1,1h1v6.941a9,9,0,1,1,2,0ZM45,39a1,1,0,1,1,1-1A1,1,0,0,1,45,39Z"/><path d="M24,4V6a5.006,5.006,0,0,1,5,5h2A7.008,7.008,0,0,0,24,4Z"/></g></svg>